:SAMPLES-PER-SECOND 30
:FULLY-SPECIFIED
:DEGREES
533
root  0.463202 34.0607 20.6017 4.53257 48.9473 -1.47371
LeftUpLeg  -8.51959 4.45705 6.48492
LeftLeg  12.1894 0.286025 0.0413726
LeftFoot  0.512851 -0.00514039 -0.0387123
LeftToes  -22.7182 1.92152e-006 4.03786e-008
Spine  1.69644 1.61875 1.22835
Spine1  3.15513 3.17017 2.54906
RightShoulder  0.0962901 5.22081 7.5611
RightArm  -32.5757 -16.8415 71.7416
RightForeArm  32.5562 15.4673 2.7898
RightHand  1.15468 -12.7962 -9.89503
LeftShoulder1  0.0469552 0.824244 -10.0875
LeftArm  -11.9729 13.3419 -72.0829
LeftForeArm  26.4898 -15.7503 -2.84547
LeftHand  0.172336 5.39458 3.12138
HEad  -11.3514 34.0966 -7.16429
RightUpLeg  -7.75394 -8.92365 -2.7691
RightLeg  10.8951 -11.2084 -1.40475
RightFoot  0.61416 0.00567728 -0.0819159
RightToes  -30.9463 -0.143075 -0.251111
534
root  0.462763 34.0683 20.5953 4.51907 48.911 -1.44923
LeftUpLeg  -8.42816 4.45657 6.46065
LeftLeg  12.0589 0.318416 0.045492
LeftFoot  0.593991 -0.00515666 -0.0384595
LeftToes  -22.6395 1.92152e-006 4.03786e-008
Spine  1.65438 1.61357 1.21775
Spine1  3.0743 3.16023 2.52687
RightShoulder  0.0959937 5.28348 7.43704
RightArm  -32.5134 -16.8935 71.7132
RightForeArm  32.5123 15.3921 2.77558
RightHand  1.15823 -12.8235 -9.90453
LeftShoulder1  0.0469552 0.725579 -9.99797
LeftArm  -11.728 13.3861 -71.9684
LeftForeArm  26.4619 -15.804 -2.85569
LeftHand  0.171388 5.44885 3.12392
HEad  -11.173 34.1704 -6.89955
RightUpLeg  -7.69179 -8.89157 -2.79629
RightLeg  10.8017 -11.2075 -1.3862
RightFoot  0.696126 0.00679829 -0.0993225
RightToes  -30.9372 -0.143075 -0.251111
535
root  0.460007 34.0738 20.5883 4.4865 48.891 -1.43863
LeftUpLeg  -8.34882 4.42612 6.44816
LeftLeg  11.9595 0.364433 0.0516344
LeftFoot  0.645315 -0.00517318 -0.0382028
LeftToes  -22.6459 1.92152e-006 4.03786e-008
Spine  1.62959 1.60004 1.20442
Spine1  3.02813 3.13322 2.49944
RightShoulder  0.0956505 5.34294 7.31227
RightArm  -32.5003 -16.89 71.6702
RightForeArm  32.5281 15.3354 2.76482
RightHand  1.16461 -12.8735 -9.92054
LeftShoulder1  0.0469552 0.631046 -9.92845
LeftArm  -11.554 13.3589 -71.8121
LeftForeArm  26.4167 -15.8677 -2.86783
LeftHand  0.17092 5.47899 3.13759
HEad  -11.0237 34.2208 -6.67798
RightUpLeg  -7.62305 -8.8893 -2.81306
RightLeg  10.702 -11.1919 -1.36464
RightFoot  0.753437 0.00759722 -0.111728
RightToes  -30.9985 -0.143075 -0.251111
536
root  0.456729 34.0787 20.5765 4.41068 48.8661 -1.42065
LeftUpLeg  -8.25928 4.42667 6.42689
LeftLeg  11.9337 0.38077 0.0538394
LeftFoot  0.666627 -0.00518992 -0.0379426
LeftToes  -22.5481 1.92152e-006 4.03786e-008
Spine  1.61364 1.59106 1.19255
Spine1  2.99886 3.11393 2.47763
RightShoulder  0.0952678 5.37369 7.15966
RightArm  -32.49 -16.8927 71.6228
RightForeArm  32.5646 15.3076 2.75954
RightHand  1.16507 -12.8942 -9.9081
LeftShoulder1  0.0469552 0.535773 -9.88726
LeftArm  -11.419 13.3021 -71.6236
LeftForeArm  26.32 -15.8884 -2.8718
LeftHand  0.170973 5.41458 3.08036
HEad  -10.7911 34.2413 -6.47183
RightUpLeg  -7.52061 -8.87876 -2.84985
RightLeg  10.6318 -11.1691 -1.34809
RightFoot  0.807078 0.00832594 -0.123044
RightToes  -30.9602 -0.143075 -0.251111
537
root  0.451958 34.0868 20.5638 4.31357 48.8071 -1.39285
LeftUpLeg  -8.11496 4.45575 6.40581
LeftLeg  11.8545 0.385576 0.0540014
LeftFoot  0.726013 -0.00520688 -0.037679
LeftToes  -22.5131 1.92152e-006 4.03786e-008
Spine  1.61267 1.59572 1.1778
Spine1  3.00189 3.12103 2.45171
RightShoulder  0.0948293 5.46065 6.98357
RightArm  -32.4133 -16.9402 71.5531
RightForeArm  32.4219 15.3658 2.77066
RightHand  1.16125 -12.8864 -9.88076
LeftShoulder1  0.0469552 0.45995 -9.81588
LeftArm  -11.352 13.1966 -71.4904
LeftForeArm  26.2342 -15.9002 -2.87407
LeftHand  0.169774 5.50796 3.11029
HEad  -10.5252 34.1653 -6.31663
RightUpLeg  -7.38459 -8.89426 -2.89318
RightLeg  10.5291 -11.0842 -1.31797
RightFoot  0.872192 0.00915888 -0.135977
RightToes  -30.9126 -0.143075 -0.251111
538
root  0.445086 34.0964 20.5518 4.25312 48.7582 -1.37257
LeftUpLeg  -7.9917 4.41933 6.38671
LeftLeg  11.7221 0.464635 0.0642753
LeftFoot  0.827787 -0.00522405 -0.0374123
LeftToes  -22.5128 1.92152e-006 4.03786e-008
Spine  1.61181 1.599 1.16328
Spine1  3.00599 3.12607 2.42511
RightShoulder  0.0943863 5.52729 6.81116
RightArm  -32.3168 -16.9264 71.4687
RightForeArm  32.3931 15.3607 2.76972
RightHand  1.15436 -12.8255 -9.86874
LeftShoulder1  0.0469552 0.391596 -9.7255
LeftArm  -11.361 13.0641 -71.3875
LeftForeArm  26.1798 -15.8773 -2.86973
LeftHand  0.170449 5.46246 3.12712
HEad  -10.3461 34.0788 -6.22376
RightUpLeg  -7.26287 -8.86219 -2.92123
RightLeg  10.3549 -11.0781 -1.28332
RightFoot  1.00176 0.0108998 -0.163011
RightToes  -30.9581 -0.143075 -0.251111
539
root  0.437901 34.1041 20.537 4.21714 48.6975 -1.35914
LeftUpLeg  -7.91819 4.45109 6.36777
LeftLeg  11.631 0.478827 0.0655148
LeftFoot  0.904796 -0.00524139 -0.0371427
LeftToes  -22.4651 1.92152e-006 4.03786e-008
Spine  1.60517 1.60186 1.15509
Spine1  2.99481 3.13599 2.40884
RightShoulder  0.0939611 5.57038 6.66499
RightArm  -32.2502 -16.8821 71.3571
RightForeArm  32.3849 15.3549 2.76863
RightHand  1.15157 -12.8441 -9.82929
LeftShoulder1  0.0469552 0.342373 -9.67008
LeftArm  -11.3515 12.9736 -71.2702
LeftForeArm  26.1181 -15.9206 -2.878
LeftHand  0.170051 5.46911 3.11852
HEad  -10.2509 34.042 -6.15818
RightUpLeg  -7.1692 -8.84983 -2.94174
RightLeg  10.1743 -11.0355 -1.24344
RightFoot  1.10935 0.0122896 -0.184593
RightToes  -30.9057 -0.143075 -0.251111
540
root  0.429004 34.108 20.5242 4.20638 48.6401 -1.3384
LeftUpLeg  -7.8749 4.48574 6.3465
LeftLeg  11.5603 0.497154 0.0674562
LeftFoot  0.952633 -0.0052589 -0.0368706
LeftToes  -22.4184 1.92152e-006 4.03786e-008
Spine  1.59981 1.60499 1.14667
Spine1  2.98567 3.13774 2.39107
RightShoulder  0.0935822 5.58801 6.58424
RightArm  -32.2145 -16.7863 71.2116
RightForeArm  32.3516 15.3194 2.76193
RightHand  1.15373 -12.8692 -9.82833
LeftShoulder1  0.0469552 0.292087 -9.6319
LeftArm  -11.3437 12.8988 -71.1517
LeftForeArm  26.0684 -15.973 -2.88799
LeftHand  0.169933 5.44955 3.10155
HEad  -10.1962 34.0774 -6.13229
RightUpLeg  -7.10597 -8.79989 -2.96008
RightLeg  10.014 -11.0398 -1.21282
RightFoot  1.21182 0.0136341 -0.205471
RightToes  -30.9324 -0.143075 -0.251111
541
root  0.418623 34.1063 20.5119 4.20676 48.5768 -1.32568
LeftUpLeg  -7.87434 4.51109 6.33193
LeftLeg  11.5476 0.533102 0.0723121
LeftFoot  0.984343 -0.00527657 -0.036596
LeftToes  -22.5298 1.92152e-006 4.03786e-008
Spine  1.60402 1.60933 1.14204
Spine1  2.98958 3.14595 2.38158
RightShoulder  0.0932725 5.57545 6.5945
RightArm  -32.2536 -16.65 71.0033
RightForeArm  32.3283 15.2919 2.75674
RightHand  1.16009 -12.8422 -9.90584
LeftShoulder1  0.0469552 0.262981 -9.63248
LeftArm  -11.3652 12.7904 -71.0607
LeftForeArm  26.1202 -15.9727 -2.88793
LeftHand  0.170239 5.46191 3.15808
HEad  -10.1808 34.1144 -6.12891
RightUpLeg  -7.12125 -8.71793 -2.97169
RightLeg  9.98585 -11.0628 -1.20986
RightFoot  1.26911 0.0143897 -0.217204
RightToes  -31.1464 -0.143075 -0.251111
542
root  0.409108 34.1029 20.5048 4.21228 48.4992 -1.32002
LeftUpLeg  -7.91116 4.56518 6.33016
LeftLeg  11.613 0.554283 0.0758753
LeftFoot  0.957528 -0.00529437 -0.0363194
LeftToes  -22.4912 1.92152e-006 4.03786e-008
Spine  1.62341 1.6201 1.13958
Spine1  3.02184 3.16641 2.37653
RightShoulder  0.0930162 5.55782 6.65541
RightArm  -32.3452 -16.5124 70.8314
RightForeArm  32.2934 15.32 2.76209
RightHand  1.16977 -12.913 -9.93425
LeftShoulder1  0.0469552 0.273387 -9.6623
LeftArm  -11.458 12.6593 -71.0056
LeftForeArm  26.1532 -15.9605 -2.88559
LeftHand  0.169386 5.48538 3.13276
HEad  -10.2649 34.1343 -6.14406
RightUpLeg  -7.17752 -8.6112 -2.97273
RightLeg  10.0378 -11.081 -1.22194
RightFoot  1.25569 0.0142072 -0.214371
RightToes  -31.139 -0.143075 -0.251111
543
root  0.402132 34.0936 20.4982 4.23114 48.4527 -1.31757
LeftUpLeg  -7.99835 4.57352 6.32527
LeftLeg  11.7542 0.601318 0.0839216
LeftFoot  0.869628 -0.0053123 -0.0360408
LeftToes  -22.4708 1.92152e-006 4.03786e-008
Spine  1.66334 1.62476 1.1401
Spine1  3.09068 3.17365 2.38124
RightShoulder  0.0928665 5.48319 6.81737
RightArm  -32.5526 -16.3056 70.5886
RightForeArm  32.2725 15.3786 2.77319
RightHand  1.18084 -12.9505 -10.001
LeftShoulder1  0.0469552 0.303561 -9.76743
LeftArm  -11.6828 12.4515 -70.9445
LeftForeArm  26.2468 -15.9173 -2.87733
LeftHand  0.170449 5.47072 3.21836
HEad  -10.5382 34.0906 -6.25621
RightUpLeg  -7.27477 -8.62862 -2.97263
RightLeg  10.1704 -11.0024 -1.239
RightFoot  1.16906 0.0129144 -0.194295
RightToes  -31.0335 -0.143075 -0.251111
544
root  0.395493 34.0814 20.4938 4.25043 48.419 -1.31982
LeftUpLeg  -8.12838 4.57509 6.32847
LeftLeg  11.979 0.622743 0.0894283
LeftFoot  0.741476 -0.00533032 -0.0357607
LeftToes  -22.4526 1.92152e-006 4.03786e-008
Spine  1.7142 1.61443 1.14741
Spine1  3.17866 3.15128 2.39674
RightShoulder  0.0927954 5.40043 7.0287
RightArm  -32.8043 -16.0724 70.3709
RightForeArm  32.196 15.434 2.78374
RightHand  1.19068 -12.9535 -10.0845
LeftShoulder1  0.0469552 0.408751 -9.90324
LeftArm  -11.9941 12.2451 -70.9272
LeftForeArm  26.388 -15.8812 -2.87041
LeftHand  0.171844 5.45805 3.33101
HEad  -10.8873 34.0979 -6.49706
RightUpLeg  -7.42205 -8.72702 -2.96749
RightLeg  10.4021 -10.8655 -1.26803
RightFoot  1.03803 0.0109758 -0.164191
RightToes  -31.0563 -0.143075 -0.251111
545
root  0.390699 34.0644 20.4893 4.26186 48.3427 -1.34138
LeftUpLeg  -8.28527 4.61814 6.34101
LeftLeg  12.2739 0.659466 0.098217
LeftFoot  0.566147 -0.00534844 -0.0354791
LeftToes  -22.4934 1.92152e-006 4.03786e-008
Spine  1.77524 1.61269 1.16146
Spine1  3.28421 3.14425 2.42877
RightShoulder  0.0927825 5.34028 7.24241
RightArm  -33.0588 -15.8712 70.218
RightForeArm  32.0257 15.5043 2.79719
RightHand  1.20252 -12.9548 -10.1868
LeftShoulder1  0.0469552 0.578117 -10.1095
LeftArm  -12.3481 12.0475 -70.9563
LeftForeArm  26.5126 -15.8436 -2.86321
LeftHand  0.172687 5.37133 3.31563
HEad  -11.2331 34.184 -6.7865
RightUpLeg  -7.6067 -8.7788 -2.95028
RightLeg  10.6959 -10.7364 -1.30869
RightFoot  0.881824 0.00873472 -0.129391
RightToes  -31.1212 -0.143075 -0.251111
